<svg width="18" height="18" viewBox="0 0 18 18" fill="none" xmlns="http://www.w3.org/2000/svg">
<path d="M9.16064 7.56836V10.6181H13.4854C13.2955 11.5989 12.7256 12.4294 11.8709 12.9878L14.4788 14.9709C15.9983 13.5964 16.875 11.5775 16.875 9.17923C16.875 8.62083 16.8239 8.08385 16.7289 7.56845L9.16064 7.56836Z" fill="#4285F4"/>
<path d="M4.65724 10.499L4.06904 10.9403L1.987 12.5296C3.30925 15.0996 6.01931 16.8751 9.16056 16.8751C11.3302 16.8751 13.1492 16.1735 14.4788 14.9708L11.8708 12.9877C11.1549 13.4602 10.2417 13.7466 9.16056 13.7466C7.07126 13.7466 5.29613 12.3649 4.66052 10.5036L4.65724 10.499Z" fill="#34A853"/>
<path d="M1.98696 5.4707C1.43909 6.5302 1.125 7.72578 1.125 9.00007C1.125 10.2744 1.43909 11.47 1.98696 12.5295C1.98696 12.5366 4.66074 10.4963 4.66074 10.4963C4.50002 10.0238 4.40503 9.52267 4.40503 8.99999C4.40503 8.47731 4.50002 7.97621 4.66074 7.50371L1.98696 5.4707Z" fill="#FBBC05"/>
<path d="M9.16072 4.26067C10.3442 4.26067 11.3961 4.66157 12.2362 5.43476L14.5374 3.17968C13.1421 1.90539 11.3304 1.125 9.16072 1.125C6.01947 1.125 3.30925 2.89329 1.987 5.47056L4.6607 7.50374C5.29622 5.64236 7.07142 4.26067 9.16072 4.26067Z" fill="#EA4335"/>
</svg>
