<svg xmlns="http://www.w3.org/2000/svg" width="513" height="513" fill="none"><g fill="#080808" clip-path="url(#a)"><path d="M506.618 35.837a12.553 12.553 0 0 0-8.2-5.377l-62.459-11.198a12.404 12.404 0 0 0-9.354 2.043 12.437 12.437 0 0 0-5.164 8.055l-14.145 78.917c-11.47-33.742-34.152-63.022-64.276-82.472-48.617-31.508-110.261-33.637-160.389-7.204a7.5 7.5 0 0 0-3.136 10.132 7.498 7.498 0 0 0 10.132 3.136c42.105-22.202 92.975-22.12 135.405.715-33.687 12.047-72.24 29.4-104.07 46.992-32.873 18.17-74.307 45.304-85.55 71.606-.025.054-.051.107-.075.161l-18.662-25.759c6.912-28.706 22.891-55.117 45.247-74.666a7.5 7.5 0 1 0-9.874-11.291c-21.056 18.412-36.986 42.348-45.953 68.668l-14.15-78.943a12.424 12.424 0 0 0-5.163-8.047 12.393 12.393 0 0 0-9.342-2.044L14.975 30.459a12.56 12.56 0 0 0-8.205 5.378 12.576 12.576 0 0 0-1.793 9.671l41.06 182.339a93.469 93.469 0 0 0 35.879 54.829l91.414 67.114a16.958 16.958 0 0 0 10.053 3.271c1.08 0 2.153-.121 3.211-.321v28.682c0 2.145-1.377 4-3.434 4.622-5.143 1.558-10.627 3.108-16.433 4.749-24.549 6.938-52.373 14.8-74.86 28.819-27.035 16.856-40.743 39.862-40.743 68.38v7.111c0 9.501 7.73 17.229 17.23 17.229h376.681c9.501 0 17.23-7.729 17.23-17.229v-7.111c0-32.568-17.057-57.027-52.145-74.773a7.501 7.501 0 0 0-6.77 13.386c29.961 15.152 43.915 34.659 43.915 61.387v7.111c0 1.23-1 2.229-2.23 2.229H68.354a2.232 2.232 0 0 1-2.23-2.229v-7.111c0-53.182 58.043-69.584 104.682-82.764 5.876-1.661 11.425-3.23 16.697-4.827 8.428-2.545 14.091-10.172 14.091-18.979v-43.048a36.56 36.56 0 0 0 1.184-3.202c19.234 9.776 38.827 15.47 53.916 15.47 15.084 0 34.678-5.692 53.917-15.464.343 1.08.738 2.147 1.183 3.198v43.046c0 8.807 5.663 16.435 14.085 18.978 5.294 1.604 10.863 3.178 16.759 4.845 9.424 2.664 19.17 5.419 28.951 8.625a7.501 7.501 0 0 0 2.337.375 7.506 7.506 0 0 0 7.126-5.167 7.499 7.499 0 0 0-4.791-9.462c-10.075-3.302-19.972-6.101-29.543-8.806-5.826-1.647-11.329-3.202-16.495-4.767a4.796 4.796 0 0 1-3.428-4.621v-28.684c1.058.199 2.131.322 3.211.322a16.97 16.97 0 0 0 10.058-3.272l91.411-67.112a93.471 93.471 0 0 0 35.878-54.826l41.062-182.356a12.569 12.569 0 0 0-1.797-9.657Zm-109.902 89.746-18.642 25.734c-14.607-43.083-55.174-72.925-101.97-72.925h-20.422c32.255-15.875 63.544-28.216 85.654-35.56 28.505 20.704 47.671 50.678 55.38 82.751ZM182.203 337.698l-91.41-67.111a78.475 78.475 0 0 1-30.122-46.031L20.185 44.763l57.438-10.296 14.649 81.729a7.488 7.488 0 0 0 1.309 3.077l47.054 64.951 8.839 49.349a10.282 10.282 0 0 1-5.841 11.171c-.792.363-1.625.625-2.468.776-5.585.998-10.953-2.736-11.959-8.321l-9.15-51.03a7.5 7.5 0 0 0-14.765 2.647l9.151 51.035c2.297 12.766 13.852 21.585 26.51 20.779.726 2.686.481 5.158 2.752 7.479l39.59 40.43c7.652 7.815 8.357 20.218 1.637 28.852-.628.811-1.855.946-2.728.307Zm21.98-18.753c-1.031-7.668-4.44-15.047-10.17-20.898l-38.044-38.852-.828-4.049a25.268 25.268 0 0 0 9.095-24.224l-9.14-51.03a7.492 7.492 0 0 0-1.309-3.078l-7.222-9.969a91.507 91.507 0 0 1 2.652-9.81c7.33-17.115 34.409-39.386 76.438-62.9 9.781-1.24 13.038-.639 50.448-.743 44.058-.121 81.708 30.719 90.706 73.473l-7.207 9.948a7.517 7.517 0 0 0-1.309 3.076l-9.148 51.029c-1.691 9.432 2.107 18.602 9.102 24.216l-.83 4.06-38.044 38.852c-5.732 5.854-9.141 13.236-10.171 20.908-18.692 10.345-38.532 16.689-52.51 16.689-13.981 0-33.823-6.348-52.509-16.698Zm248.534-94.387a78.468 78.468 0 0 1-30.121 46.028l-91.406 67.107c-.877.643-2.104.506-2.738-.308-6.717-8.63-6.011-21.031 1.641-28.846l39.59-40.43c2.275-2.324 2.026-4.792 2.753-7.481 12.643.816 24.219-8.008 26.509-20.782l9.148-51.028a7.5 7.5 0 0 0-6.059-8.706 7.5 7.5 0 0 0-8.706 6.059l-9.148 51.028c-1.002 5.588-6.359 9.318-11.952 8.317a10.287 10.287 0 0 1-2.562-.815c-4.112-1.934-6.594-6.456-5.755-11.137l8.846-49.34 47.051-64.952a7.515 7.515 0 0 0 1.309-3.077l14.649-81.73 57.438 10.297-40.487 179.796Z"/><path d="M218.578 189.826c-12.077-7.41-24.844-7.41-36.921 0a7.5 7.5 0 0 0-2.47 10.315 7.5 7.5 0 0 0 10.315 2.47c7.243-4.443 13.99-4.443 21.232 0a7.494 7.494 0 0 0 10.315-2.471 7.5 7.5 0 0 0-2.471-10.314Zm105.31 12.784a7.494 7.494 0 0 0 10.315-2.471 7.5 7.5 0 0 0-2.47-10.315c-12.077-7.41-24.844-7.409-36.921 0a7.5 7.5 0 0 0-2.47 10.315 7.5 7.5 0 0 0 10.315 2.47c7.24-4.441 13.988-4.442 21.231.001Zm-43.324 63.972c-15.169 6.564-32.569 6.564-47.738 0a7.5 7.5 0 0 0-5.957 13.767c9.478 4.101 19.652 6.152 29.826 6.152s20.349-2.051 29.826-6.152a7.5 7.5 0 1 0-5.957-13.767Z"/></g><defs><clipPath id="a"><path fill="#fff" d="M.695.333h512v512h-512z"/></clipPath></defs></svg>