<svg xmlns="http://www.w3.org/2000/svg" width="513" height="513" fill="none"><g fill="#080808" clip-path="url(#a)"><path d="M261.339 512.333c-20.422 0-39.368-8.197-53.349-23.083-13.98-14.885-20.976-34.309-19.697-54.69l.921-14.673a7.532 7.532 0 0 1 7.989-7.046 7.532 7.532 0 0 1 7.046 7.989l-.921 14.673c-1.016 16.187 4.539 31.612 15.642 43.433 11.103 11.822 26.15 18.333 42.368 18.333 27.224 0 50.513-18.528 56.635-45.055l3.777-16.364a219.495 219.495 0 0 0 2.605-13.209 7.524 7.524 0 0 1 8.668-6.192 7.53 7.53 0 0 1 6.192 8.666 233.413 233.413 0 0 1-2.787 14.122l-3.777 16.365c-7.707 33.404-37.032 56.731-71.312 56.731Zm-62.584-116.539a7.532 7.532 0 0 1-7.525-8.003l.954-15.193a260.129 260.129 0 0 0-1.947-51.759 7.533 7.533 0 0 1 14.923-2.061 275.215 275.215 0 0 1 2.059 54.763l-.955 15.193a7.533 7.533 0 0 1-7.509 7.06Zm276.206 22.922a7.53 7.53 0 0 1-6.689-4.059l-27.687-53.246a23.428 23.428 0 0 1-2.631-10.765v-27.229a7.532 7.532 0 1 1 15.064 0v27.229c0 1.323.322 2.642.932 3.815l27.688 53.247a7.532 7.532 0 0 1-6.677 11.008Zm-356.058-56.658a7.531 7.531 0 0 1-6.05-12.011l30.604-41.373a7.546 7.546 0 0 1 2.881-2.351l10.534-4.895a78.1 78.1 0 0 0 31.686-26.967 7.532 7.532 0 1 1 12.463 8.457 93.158 93.158 0 0 1-37.802 32.17l-8.793 4.087-29.462 39.829a7.52 7.52 0 0 1-6.061 3.054Z"/><path d="m440.526 236.09-79.744-68.11c.112-13.283-2.933-26.309-8.955-38.224.293-.119.588-.234.879-.361a38.356 38.356 0 0 0 22.361-28.567c1.404-8.055-.943-16.148-6.442-22.2-5.5-6.05-13.326-9.157-21.482-8.534-.842.065-1.675.183-2.504.328-.051-.512-.091-1.024-.161-1.537-1.231-9.01-6.45-16.792-14.319-21.35-7.129-4.13-15.472-5.043-23.246-2.637-2.829-8.391-9.17-14.955-17.496-18.054-6.672-2.484-13.829-2.445-20.333-.024a49.927 49.927 0 0 0-4.049-7.024c-5.895-8.496-15.198-13.69-25.524-14.25-8.314-.45-16.295 2.165-22.627 7.278l-.045-.05A38.116 38.116 0 0 0 188.703.333c-13.126 0-25.149 6.626-32.159 17.724-7.011 11.098-7.829 24.8-2.191 36.654l1.417 2.977a60.746 60.746 0 0 1 4.17 11.754l-81.785 69.299a50.221 50.221 0 0 0-17.784 38.381v80.595a8.301 8.301 0 0 1-.933 3.815L31.75 314.779a7.531 7.531 0 0 0 6.676 11.008 7.532 7.532 0 0 0 6.69-4.059l27.687-53.247a23.427 23.427 0 0 0 2.632-10.764v-80.595a35.18 35.18 0 0 1 12.46-26.888l73.599-62.364a60.696 60.696 0 0 1-.352 3.654l-2.069 15.919a332.72 332.72 0 0 0-.759 6.385l-27.262 32.57a18.356 18.356 0 0 0-4.044 14.742l9.767 59.983a16.6 16.6 0 0 0 16.446 13.985h11.525c5.818 0 11.294-3.099 14.288-8.09l15.898-26.495a11.48 11.48 0 0 1 7.409-5.346 11.481 11.481 0 0 1 8.979 1.687l1.386.93a11.593 11.593 0 0 1 4.192 14.181l-14.707 34.321a7.532 7.532 0 0 0 6.921 10.5 7.532 7.532 0 0 0 6.926-4.567l14.706-34.321c5.043-11.767.986-25.487-9.644-32.621l-1.384-.93c-6.123-4.108-13.458-5.488-20.656-3.881-7.197 1.607-13.25 5.974-17.044 12.297l-15.897 26.494c-.288.48-.814.777-1.372.777h-11.525a1.594 1.594 0 0 1-1.579-1.342l-9.767-59.983a3.301 3.301 0 0 1 .728-2.653l13.872-16.574a335.315 335.315 0 0 0 .984 39.148 7.525 7.525 0 0 0 8.135 6.875 7.533 7.533 0 0 0 6.876-8.135 320.572 320.572 0 0 1 1.541-67.997l2.069-15.918a75.627 75.627 0 0 0-.439-22.424c-.015-.089-.034-.176-.049-.264a75.612 75.612 0 0 0-6.218-19.559l-1.416-2.978c-3.406-7.159-2.911-15.436 1.323-22.138 4.234-6.703 11.493-10.705 19.421-10.705 6.551 0 12.586 2.668 16.994 7.514 4.409 4.846 6.496 11.105 5.879 17.627l-.399 4.217a44.701 44.701 0 0 0 3.631 22.288c6.139 13.846 18.73 23.553 33.683 25.966l39.16 6.319c10.359 1.671 19.96 5.565 28.303 11.346.258.208.528.399.808.57 6.378 4.557 12 10.227 16.619 16.882.158.229.302.466.458.697l.03.046c10.413 15.41 14.151 33.897 10.496 52.172l-15.34 76.716a7.533 7.533 0 0 0 14.773 2.954l7.096-35.485 20.077 23.987c.501.599.717 1.385.591 2.155l-9.691 59.52a2.477 2.477 0 0 1-2.453 2.087h-10.27a2.497 2.497 0 0 1-2.131-1.207l-15.159-25.264c-3.919-6.534-10.175-11.047-17.61-12.707-7.436-1.66-15.018-.236-21.346 4.011-10.984 7.372-15.174 21.549-9.964 33.707l20.744 48.412a93.901 93.901 0 0 0 46.796 48.234l8.486 3.943 29.464 39.83a7.521 7.521 0 0 0 6.06 3.053 7.533 7.533 0 0 0 6.049-12.012l-30.605-41.372a7.526 7.526 0 0 0-2.88-2.351l-10.226-4.752a78.863 78.863 0 0 1-39.3-40.507l-20.743-48.413a12.48 12.48 0 0 1 4.513-15.266 12.359 12.359 0 0 1 9.668-1.817 12.35 12.35 0 0 1 7.974 5.755l15.16 25.264c3.153 5.257 8.919 8.521 15.048 8.521h10.27a17.483 17.483 0 0 0 17.321-14.729l9.691-59.522a17.736 17.736 0 0 0-3.908-14.243l-27.84-33.261 4.049-20.248 72.015 61.509a20.541 20.541 0 0 1 7.211 15.641v28.133a7.531 7.531 0 0 0 7.532 7.532 7.531 7.531 0 0 0 7.532-7.532v-28.131a35.593 35.593 0 0 0-12.493-27.096ZM348.301 85.112a11.156 11.156 0 0 1 9.175 3.646 11.155 11.155 0 0 1 2.751 9.482 23.319 23.319 0 0 1-13.595 17.369c-.979.432-1.99.758-3.021.998a84.584 84.584 0 0 0-10.877-11.823 43.178 43.178 0 0 0 10.419-17.951 11.27 11.27 0 0 1 5.148-1.72Zm-25.69-24.542a14.09 14.09 0 0 1 6.942 10.352 28.22 28.22 0 0 1-.371 9.727c-.037.15-.064.3-.093.45a28.154 28.154 0 0 1-8.579 14.575 83.404 83.404 0 0 0-21.625-9.303c.209-.246.426-.485.628-.736a43.2 43.2 0 0 0 9.549-25.42 14.091 14.091 0 0 1 13.549.355Zm-38.449-19.608A14.089 14.089 0 0 1 292.746 50a28.33 28.33 0 0 1 1.253 6.826l.004.068a28.165 28.165 0 0 1-6.216 19.283 21.115 21.115 0 0 1-7.364 5.8l-1.456.689-17.07-2.755a41.584 41.584 0 0 0 8.542-13.333 49.815 49.815 0 0 0 3.003-25.27 14.073 14.073 0 0 1 10.72-.347Zm-55.584 19.975a29.61 29.61 0 0 1-2.404-14.764l.399-4.216a38.052 38.052 0 0 0-1.892-15.896c3.665-3.776 8.712-5.761 14.016-5.474a18.075 18.075 0 0 1 13.961 7.794 34.817 34.817 0 0 1 5.054 10.974c.055.254.123.505.204.753a34.77 34.77 0 0 1-1.486 20.932 26.423 26.423 0 0 1-6.634 9.667l-5.871 5.408a29.437 29.437 0 0 1-15.347-15.178Z"/><path d="M254.774 331.438a7.53 7.53 0 0 1-6.669-4.02c-4.875-9.245-7.451-19.688-7.451-30.202 0-18.368 7.839-35.949 21.508-48.236a7.53 7.53 0 0 1 10.637.566 7.53 7.53 0 0 1-.566 10.636 49.867 49.867 0 0 0-16.514 37.033c0 8.075 1.975 16.089 5.712 23.176a7.531 7.531 0 0 1-3.149 10.175 7.494 7.494 0 0 1-3.508.872Zm38.871-82.776a7.532 7.532 0 0 1-1.54-14.904 65.703 65.703 0 0 1 25.157-.32 7.532 7.532 0 0 1-2.718 14.817 50.534 50.534 0 0 0-19.342.246 7.603 7.603 0 0 1-1.557.161Zm-35.262-20.874a7.484 7.484 0 0 1-2.401-.395 7.53 7.53 0 0 1-4.739-9.539 45.846 45.846 0 0 0 2.383-14.647c0-25.318-20.598-45.916-45.916-45.916-3.122 0-6.238.313-9.262.933a7.53 7.53 0 0 1-8.889-5.869 7.53 7.53 0 0 1 5.869-8.889 61.448 61.448 0 0 1 12.282-1.238c33.624 0 60.98 27.356 60.98 60.98a60.906 60.906 0 0 1-3.169 19.447 7.535 7.535 0 0 1-7.138 5.133Z"/></g><defs><clipPath id="a"><path fill="#fff" d="M.694.333h512v512h-512z"/></clipPath></defs></svg>