<svg xmlns="http://www.w3.org/2000/svg" width="513" height="513" fill="none"><g clip-path="url(#a)"><path fill="#080808" d="M304.105 94.388a67.926 67.926 0 0 1 4.846 5.018 73.29 73.29 0 0 1 7.598 10.517c2.098 3.543.906 8.135-2.637 10.262-3.57 2.098-8.164.906-10.262-2.637-1.982-3.373-4.28-6.548-6.944-9.411-1.787 2.183-3.855 4.195-6.096 6.038-8.758 7.115-20.777 11.509-33.93 11.509-13.153 0-25.144-4.394-33.903-11.509-2.268-1.843-4.309-3.855-6.095-6.038-5.102 5.528-9.099 12.303-12.047 19.984-3.997 10.348-6.123 22.423-6.52 35.434 7.682 6.832 16.44 12.331 25.965 16.215a86.413 86.413 0 0 0 32.599 6.35c11.508 0 22.506-2.239 32.627-6.35 9.523-3.884 18.284-9.383 25.966-16.215-.057-2.125-.17-4.223-.34-6.235a114.723 114.723 0 0 0-1.219-10.403 7.496 7.496 0 0 1 6.18-8.589c4.082-.652 7.935 2.126 8.588 6.179.652 3.884 1.105 7.796 1.418 11.681l.057.905c10.914-.141 23.018-.396 36.935-.905 16.696-.625 36.228-1.588 59.812-3.062 9.639-.624 17.83.82 24.35 3.797 7.199 3.289 12.387 8.448 15.363 14.884 2.92 6.235 3.629 13.548 2.041 21.457-1.729 8.561-6.264 17.829-13.748 27.015a900.123 900.123 0 0 0-21.344 27.157h25.738c8.957 0 17.122-3.658 23.046-9.582 5.926-5.925 9.609-14.087 9.609-23.045V47.984c0-8.986-3.684-17.122-9.609-23.046-5.924-5.924-14.089-9.608-23.046-9.608H54.283c-8.985 0-17.12 3.685-23.045 9.609-5.924 5.924-9.61 14.06-9.61 23.045V114.4c0 4.139-3.345 7.512-7.483 7.512s-7.512-3.373-7.512-7.512V47.984c0-13.125 5.357-25.03 14.003-33.648C29.253 5.69 41.159.334 54.284.334h404.82c13.126 0 25.03 5.357 33.647 14.005 8.647 8.617 14.004 20.523 14.004 33.648v166.821c0 13.097-5.357 25-14.004 33.646-6.945 6.944-16.016 11.793-26.136 13.409v101.056c0 4.139-3.373 7.482-7.512 7.482a7.476 7.476 0 0 1-7.484-7.482v-100.49h-29.225c-60.86 85.607-66.614 139.58-75.573 234.911h104.798V396.878a7.476 7.476 0 0 1 7.484-7.483c4.139 0 7.512 3.345 7.512 7.483V504.85c0 4.139-3.373 7.483-7.512 7.483H54.283c-4.138 0-7.511-3.345-7.511-7.483V261.862c-10.12-1.616-19.191-6.465-26.136-13.409-8.646-8.617-14.003-20.55-14.003-33.646v-66.418a7.506 7.506 0 0 1 7.512-7.511c4.139 0 7.483 3.344 7.483 7.511v66.418c0 8.958 3.686 17.12 9.61 23.045 5.925 5.924 14.06 9.582 23.046 9.582h25.739a898.616 898.616 0 0 0-21.345-27.157c-7.483-9.186-12.02-18.454-13.748-27.015-1.587-7.909-.88-15.223 2.04-21.458 2.978-6.436 8.165-11.594 15.365-14.883 6.52-2.977 14.712-4.422 24.35-3.798 23.585 1.474 43.115 2.439 59.812 3.033 13.918.511 26.022.794 36.936.935.879-12.358 3.26-23.98 7.257-34.356 4.281-11.141 10.432-20.777 18.595-28.347a34.798 34.798 0 0 1-1.389-9.75c0-11.623 5.698-22.055 14.882-29.51 8.759-7.114 20.75-11.536 33.903-11.536 13.153 0 25.172 4.422 33.93 11.537 9.186 7.455 14.855 17.887 14.855 29.509-.002 3.372-.455 6.632-1.361 9.75Zm-50.912 343.846c8.334 0 15.987 2.296 21.657 6.037 6.576 4.338 10.629 10.632 10.629 17.831 0 7.202-4.053 13.494-10.629 17.83-5.67 3.742-13.323 6.067-21.657 6.067s-16.016-2.325-21.686-6.067c-6.548-4.336-10.63-10.628-10.63-17.83 0-7.199 4.082-13.493 10.63-17.831 5.67-3.741 13.352-6.037 21.686-6.037Zm13.408 18.539c-3.317-2.211-8.05-3.544-13.408-3.544-5.386 0-10.092 1.333-13.408 3.544-2.409 1.587-3.912 3.487-3.912 5.329 0 1.844 1.502 3.77 3.912 5.356 3.316 2.184 8.022 3.546 13.408 3.546 5.358 0 10.09-1.361 13.408-3.546 2.409-1.587 3.884-3.513 3.884-5.356 0-1.841-1.475-3.742-3.884-5.329Zm-26.476-155.48c9.496 0 18.198 2.833 24.633 7.397 7.144 5.074 11.565 12.303 11.565 20.495s-4.422 15.448-11.565 20.522c-6.435 4.564-15.137 7.37-24.633 7.37-9.497 0-18.227-2.807-24.634-7.37-7.143-5.074-11.566-12.33-11.566-20.522 0-8.192 4.422-15.421 11.566-20.495 6.407-4.564 15.138-7.397 24.634-7.397Zm15.959 19.586c-3.968-2.835-9.609-4.564-15.959-4.564s-11.991 1.729-15.959 4.564c-3.232 2.296-5.244 5.244-5.244 8.306 0 3.061 2.012 6.039 5.244 8.335 3.968 2.807 9.609 4.563 15.959 4.563s11.991-1.756 15.959-4.563c3.232-2.296 5.244-5.273 5.244-8.335.001-3.062-2.012-6.01-5.244-8.306Zm22.621 40.139c13.209 0 25.257 3.345 34.13 8.788 9.949 6.122 16.1 14.911 16.1 24.918 0 10.035-6.15 18.821-16.1 24.944-8.873 5.414-20.921 8.788-34.13 8.788-13.182 0-25.229-3.374-34.102-8.788-9.95-6.123-16.101-14.909-16.101-24.944 0-10.007 6.151-18.796 16.101-24.918 8.873-5.444 20.921-8.788 34.102-8.788Zm26.335 21.572c-6.634-4.053-15.903-6.577-26.335-6.577-10.404 0-19.701 2.524-26.306 6.577-5.499 3.374-8.901 7.683-8.901 12.134 0 4.45 3.402 8.786 8.901 12.159 6.605 4.054 15.902 6.577 26.306 6.577 10.432 0 19.701-2.524 26.335-6.577 5.498-3.373 8.9-7.709 8.9-12.159.001-4.451-3.402-8.76-8.9-12.134ZM281.17 66.723c-6.18-5.017-14.824-8.136-24.491-8.136-9.638 0-18.283 3.118-24.463 8.135-5.754 4.678-9.298 11.027-9.298 17.916 0 6.915 3.544 13.237 9.298 17.914 6.18 5.017 14.826 8.136 24.463 8.136 9.666 0 18.311-3.118 24.491-8.136 5.756-4.677 9.299-10.999 9.299-17.915 0-6.888-3.543-13.239-9.299-17.915Zm32.628 116.872a102.98 102.98 0 0 1-18.88 10.063 101.432 101.432 0 0 1-38.239 7.455 101.403 101.403 0 0 1-38.211-7.455 103.037 103.037 0 0 1-18.879-10.063c2.665 13.04 8.674 25.428 16.895 35.831 8.702 11.027 24.917 25.2 40.196 25.2 15.307 0 31.493-14.173 40.223-25.2 8.221-10.404 14.231-22.791 16.895-35.831Zm-130.707-11.564a1537.512 1537.512 0 0 1-37.134-.937c-17.292-.624-37.021-1.588-60.21-3.033-7.114-.453-12.868.482-17.205 2.466-3.827 1.729-6.492 4.337-7.994 7.54-1.56 3.373-1.928 7.568-.964 12.274 1.247 6.208 4.762 13.237 10.687 20.522 22.394 27.412 44.108 56.553 61.484 87.422 14.797 26.307 24.548 50.57 31.409 75.516 1.077 3.969-1.276 8.079-5.244 9.156a7.492 7.492 0 0 1-9.185-5.243c-6.491-23.67-15.817-46.829-30.047-72.114-7.682-13.636-16.81-27.894-27.667-43.173H61.767v234.91h104.798c-3.09-33.025-5.811-61.116-10.517-87.109-.737-4.082 1.984-7.965 6.038-8.673 4.053-.738 7.936 1.954 8.674 6.036 4.876 26.957 7.625 55.786 10.8 89.746h150.238c6.066-64.518 10.574-110.609 30.529-159.48 18.822-46.149 49.267-88.413 80.761-126.994 5.953-7.285 9.467-14.314 10.715-20.522.963-4.706.596-8.901-.965-12.274-1.502-3.203-4.195-5.811-7.992-7.54-4.338-1.984-10.092-2.919-17.207-2.466-23.188 1.445-42.889 2.409-60.208 3.061-13.834.51-26.023.765-37.162.907-.285 7.426-1.531 14.628-3.488 21.487l69.224 4.422c4.111.254 7.258 3.827 7.002 7.938a7.467 7.467 0 0 1-1.9 4.534c-17.518 21.459-70.64 81.525-101.141 82.716-15.846.623-23.527-8.22-26.845-19.842-1.474-5.159-1.956-10.858-1.9-16.328-5.017 1.758-9.921 2.664-14.541 2.664-4.592 0-9.524-.906-14.513-2.664.057 5.471-.425 11.169-1.899 16.328-3.345 11.622-11.027 20.465-26.845 19.842-30.643-1.219-83.935-61.652-101.368-82.998a7.474 7.474 0 0 1 1.077-10.518 7.553 7.553 0 0 1 4.252-1.672l69.223-4.422a90.972 90.972 0 0 1-3.516-21.485Zm138.192 36.142c-3.486 7.484-7.824 14.371-12.672 20.522-5.867 7.427-12.558 13.776-19.503 18.737h57.573c13.123-12.501 25.482-26.192 33.562-35.491l-58.96-3.768Zm-97.004 39.261c-6.973-4.961-13.635-11.311-19.502-18.737a104.792 104.792 0 0 1-12.699-20.524l-58.933 3.77c8.079 9.299 20.41 22.99 33.562 35.491h57.572Zm62.079 14.994c.199 2.381.568 4.648 1.162 6.775 1.531 5.243 4.934 9.27 11.877 8.986 8.108-.312 18.909-6.748 30.22-15.762h-43.259v.001Zm-102.587 0c11.311 9.014 22.111 15.449 30.218 15.761 6.944.283 10.346-3.742 11.849-8.985.624-2.127.992-4.394 1.19-6.774h-43.257v-.002Z"/></g><defs><clipPath id="a"><path fill="#fff" d="M.694.333h512v512h-512z"/></clipPath></defs></svg>