<svg xmlns="http://www.w3.org/2000/svg" width="513" height="513" fill="none"><g fill="#080808" clip-path="url(#a)"><path d="M486.996 68.645c-4.127-16.043-13.88-29.913-27.463-39.056-15.735-10.582-34.53-14.063-52.921-9.805-18.133 4.199-33.868 15.847-43.171 31.961-7.223 12.526-10.199 26.723-8.607 41.05.316 2.858-.486 5.64-2.25 7.821a396589.15 396589.15 0 0 0-56.594 69.77l-49.374 60.875H40.399c-8.42 0-15.27 6.854-15.27 15.28v28.27c0 8.312.55 16.644 1.636 24.764a7.501 7.501 0 0 0 14.868-1.987 172.474 172.474 0 0 1-1.504-22.776v-28.27c0-.149.126-.28.27-.28h406.347c.152 0 .28.128.28.28v28.27c0 7.427-.487 14.941-1.448 22.333a7.5 7.5 0 0 0 14.875 1.933 189.09 189.09 0 0 0 1.573-24.266v-28.27c0-8.426-6.854-15.28-15.28-15.28h-33.438c12.014-31.393 18.156-47.433 29.974-78.28 1-2.613 3.049-4.716 5.758-5.915 14.287-6.293 25.619-16.997 32.771-30.953 7.47-14.574 9.311-31.432 5.185-47.469Zm-18.533 40.626c-5.563 10.856-14.371 19.179-25.481 24.073-6.403 2.834-11.271 7.905-13.708 14.274a184610.412 184610.412 0 0 0-32.026 83.643h-131.32l41.71-51.426c23.746-29.277 34.582-42.637 56.601-69.778 4.307-5.327 6.261-12.042 5.502-18.914-1.237-11.134 1.078-22.167 6.691-31.902 7.337-12.708 19.257-21.532 33.563-24.845 14.299-3.313 28.917-.599 41.163 7.637 10.53 7.088 18.098 17.865 21.31 30.348 3.212 12.484 1.789 25.584-4.005 36.89Zm-19.591 210.937a7.5 7.5 0 0 0-9.372 4.967c-14.22 46.294-47.628 84.584-91.658 105.053-5.33 2.478-8.773 7.9-8.773 13.814v24.3c0 .15-.123.273-.273.273H186.188a7.5 7.5 0 0 0 0 15h152.607c8.422 0 15.273-6.852 15.273-15.273v-24.3c0-.114.058-.194.097-.212 47.878-22.258 84.208-63.901 99.674-114.251a7.5 7.5 0 0 0-4.967-9.371Z"/><path d="M206.999 389.095c14.313-12.118 25.957-27.271 33.948-44.316a18.703 18.703 0 0 0-.751-17.287c-3.063-5.307-8.521-8.785-14.59-9.303a129.706 129.706 0 0 0-8.111-.446c-4.169-.112-7.577 3.18-7.675 7.321a7.501 7.501 0 0 0 7.321 7.675c2.386.056 4.798.189 7.18.395 2.554.218 4.127 2.969 3.046 5.273a116.068 116.068 0 0 1-32.696 41.424 133.975 133.975 0 0 0-24.199-12.643 133.43 133.43 0 0 0-5.405-2.007c-.104-.036-.209-.068-.313-.104a39.362 39.362 0 0 0-15.657-12.191c12.054-8.19 25.701-14.237 40.453-17.48a7.5 7.5 0 0 0-3.222-14.65 130.422 130.422 0 0 0-16.1 4.646c-3.342-18.458-10.639-36.111-21.397-51.541a18.726 18.726 0 0 0-15.356-7.995 18.724 18.724 0 0 0-15.357 7.996c-10.761 15.435-18.06 33.095-21.4 51.56-17.661-6.336-36.61-8.843-55.364-7.233a18.713 18.713 0 0 0-14.601 9.303c-3.062 5.305-3.342 11.767-.752 17.283 7.993 17.05 19.638 32.204 33.949 44.32-14.311 12.129-25.955 27.28-33.951 44.316a18.739 18.739 0 0 0 .762 17.309c3.063 5.302 8.519 8.776 14.59 9.293 3.702.317 7.408.475 11.113.475 15.072 0 30.079-2.615 44.257-7.705 3.341 18.46 10.639 36.115 21.395 51.544a18.717 18.717 0 0 0 15.359 8.007 18.715 18.715 0 0 0 15.357-8.003c10.759-15.431 18.056-33.087 21.398-51.547a130.992 130.992 0 0 0 55.365 7.229c6.075-.518 11.53-3.992 14.594-9.293a18.746 18.746 0 0 0 .759-17.316c-7.992-17.029-19.634-32.177-33.949-44.309Zm-97.35-43.285a116.007 116.007 0 0 1 20.772-63.368c.956-1.371 2.323-1.575 3.053-1.575.729 0 2.097.205 3.052 1.575a116.063 116.063 0 0 1 19.52 49.03c-10.48 5.242-19.626 11.477-27.746 18.53a39.225 39.225 0 0 0-18.37 7.467 117.41 117.41 0 0 1-.281-11.659Zm-70.07-7.406c-.705-1.501-.2-2.783.165-3.414.365-.632 1.225-1.714 2.886-1.855a116.057 116.057 0 0 1 52.229 7.596 132.07 132.07 0 0 0 2.172 33.29c-2.512 6.051-3.531 12.739-2.728 19.656-23.587-11.411-43.15-30.584-54.724-55.273Zm60.13 97.023c-17.835 7.979-37.571 11.311-57.083 9.641-2.558-.219-4.13-2.98-3.047-5.291a116.329 116.329 0 0 1 32.697-41.421c14.967 9.891 26.658 13.412 29.959 14.785a39.651 39.651 0 0 0 15.607 12.164 121.71 121.71 0 0 1-7.324 4.596 117.447 117.447 0 0 1-10.81 5.526Zm57 6.069v.008a116.028 116.028 0 0 1-20.185 54.251c-.957 1.373-2.321 1.578-3.05 1.578-.729 0-2.093-.205-3.052-1.582a116.073 116.073 0 0 1-19.52-49.03c10.357-5.169 19.251-11.24 27.729-18.524a39.15 39.15 0 0 0 18.39-7.429c.211 2.86.318 5.735.318 8.603 0 4.019-.212 8.099-.63 12.125Zm.849-48.172a24.085 24.085 0 0 1-2.185 6.646l-.001.003c-4.167 8.369-12.559 13.568-21.904 13.568-13.476 0-24.439-10.964-24.439-24.44 0-13.481 10.963-24.45 24.439-24.45a24.41 24.41 0 0 1 20.378 10.937c2.664 4 4.072 8.673 4.072 13.513 0 1.432-.12 2.842-.36 4.223Zm69.643 49.892c-1.064 1.842-2.783 1.804-2.883 1.853a115.993 115.993 0 0 1-52.229-7.603 132.409 132.409 0 0 0-2.166-33.266c2.634-6.331 3.48-13.191 2.733-19.67 25.425 12.478 43.794 31.984 54.71 55.241.711 1.519.202 2.811-.165 3.445ZM109.682 121.873c-13.876 0-25.164 11.289-25.164 25.164 0 13.875 11.289 25.164 25.164 25.164 13.875 0 25.164-11.288 25.164-25.164 0-13.876-11.288-25.164-25.164-25.164Zm0 35.328c-5.604 0-10.164-4.56-10.164-10.164s4.56-10.164 10.164-10.164 10.164 4.56 10.164 10.164-4.56 10.164-10.164 10.164Zm80.827-71.061c-13.875 0-25.164 11.289-25.164 25.164 0 13.875 11.288 25.164 25.164 25.164 13.875 0 25.164-11.289 25.164-25.164 0-13.875-11.289-25.164-25.164-25.164Zm0 35.328c-5.604 0-10.164-4.56-10.164-10.164s4.559-10.164 10.164-10.164c5.604 0 10.164 4.56 10.164 10.164s-4.56 10.164-10.164 10.164ZM127.346.333c-13.875 0-25.164 11.289-25.164 25.164 0 13.875 11.289 25.164 25.164 25.164 13.875 0 25.164-11.289 25.164-25.164 0-13.875-11.289-25.164-25.164-25.164Zm0 35.328c-5.604 0-10.164-4.56-10.164-10.164s4.56-10.164 10.164-10.164 10.164 4.56 10.164 10.164-4.56 10.164-10.164 10.164Z"/></g><defs><clipPath id="a"><path fill="#fff" d="M.694.333h512v512.001h-512z"/></clipPath></defs></svg>